<svg xmlns="http://www.w3.org/2000/svg" viewBox="0 0 64 64"><!-- favicons/favicon-1-monogram.svg, with the IBM Plex Mono 700 "D" converted to outlines: a favicon cannot load a webfont, so the <text> original would fall back to each platform's own monospace. --><rect width="64" height="64" rx="12" fill="#2f3ad1"></rect><path d="M22.56 45L22.56 17.08L31.56 17.08Q37.20 17.08 39.92 20.68Q42.64 24.28 42.64 31.04L42.64 31.04Q42.64 37.80 39.92 41.40Q37.20 45 31.56 45L31.56 45L22.56 45ZM28.48 40.28L31.16 40.28Q33.84 40.28 35.08 38.56Q36.32 36.84 36.32 33.56L36.32 33.56L36.32 28.48Q36.32 25.24 35.08 23.52Q33.84 21.80 31.16 21.80L31.16 21.80L28.48 21.80L28.48 40.28Z" fill="#ffffff"></path></svg>
